<?xml version="1.0" encoding="UTF-8" standalone="no"?>
<!-- Created with Inkscape (http://www.inkscape.org/) -->

<svg
   xmlns:dc="http://purl.org/dc/elements/1.1/"
   xmlns:cc="http://creativecommons.org/ns#"
   xmlns:rdf="http://www.w3.org/1999/02/22-rdf-syntax-ns#"
   xmlns:svg="http://www.w3.org/2000/svg"
   xmlns="http://www.w3.org/2000/svg"
   xmlns:sodipodi="http://sodipodi.sourceforge.net/DTD/sodipodi-0.dtd"
   xmlns:inkscape="http://www.inkscape.org/namespaces/inkscape"
   width="1728"
   height="1728"
   viewBox="0 0 457.19999 457.20001"
   version="1.1"
   id="svg8"
   inkscape:version="0.92.2 2405546, 2018-03-11"
   sodipodi:docname="shutdown.svg">
  <defs
     id="defs2" />
  <sodipodi:namedview
     id="base"
     pagecolor="#ffffff"
     bordercolor="#666666"
     borderopacity="1.0"
     inkscape:pageopacity="0.0"
     inkscape:pageshadow="2"
     inkscape:zoom="0.175"
     inkscape:cx="844.02292"
     inkscape:cy="1115.8446"
     inkscape:document-units="px"
     inkscape:current-layer="layer1"
     showgrid="false"
     units="px"
     inkscape:window-width="1680"
     inkscape:window-height="994"
     inkscape:window-x="0"
     inkscape:window-y="0"
     inkscape:window-maximized="1">
    <inkscape:grid
       type="xygrid"
       id="grid839" />
  </sodipodi:namedview>
  <metadata
     id="metadata5">
    <rdf:RDF>
      <cc:Work
         rdf:about="">
        <dc:format>image/svg+xml</dc:format>
        <dc:type
           rdf:resource="http://purl.org/dc/dcmitype/StillImage" />
        <dc:title></dc:title>
      </cc:Work>
    </rdf:RDF>
  </metadata>
  <g
     inkscape:label="Ebene 1"
     inkscape:groupmode="layer"
     id="layer1"
     transform="translate(0,160.20003)">
    <path
       style="fill:#000000;fill-opacity:1;stroke:none;stroke-width:0.27902129px;stroke-linecap:butt;stroke-linejoin:miter;stroke-opacity:1"
       d="m -9.2433779,-303.98213 -6.5817241,98.87785 c 0,0 1.645425,26.26443 49.362917,13.13222 47.717493,-13.13222 46.89478,-63.34362 70.753525,-54.84631 23.85875,8.49731 4.93629,102.74027 39.49034,103.51275 34.55404,0.77248 39.49031,-71.06845 106.13026,-75.70335 66.63994,-4.6349 15.63159,108.92013 56.76737,110.4651 41.13575,1.54497 37.02217,-98.10537 81.44881,-98.87785 44.42662,-0.77249 73.22165,22.40201 84.73967,22.40201 11.51801,0 10.69531,-118.18994 10.69531,-118.18994 z"
       id="path815"
       inkscape:connector-curvature="0"
       sodipodi:nodetypes="ccssssssscc" />
    <path
       style="fill:#000000;fill-opacity:1;stroke:none;stroke-width:0.27902129px;stroke-linecap:butt;stroke-linejoin:miter;stroke-opacity:1"
       d="m -9.2433779,-303.98213 -6.5817241,116.72225 c -0.464494,0 -8.137156,40.94162 46.89478,27.80941 48.192901,-11.50024 47.717481,-47.89397 71.576232,-39.39665 23.85875,8.49731 8.22716,85.74564 41.95848,84.20067 34.52278,-1.58122 30.44047,-97.33288 97.08039,-101.96779 66.63993,-4.63489 27.97232,149.861747 69.10811,151.406718 41.13574,1.544968 32.08588,-129.777178 76.51251,-130.549658 44.42662,-0.7725 73.22166,27.03691 84.73968,27.03691 11.51801,0 11.51802,-134.48938 11.51802,-134.48938 z"
       id="path842"
       inkscape:connector-curvature="0"
       sodipodi:nodetypes="ccssssssscc" />
    <path
       style="fill:#000000;fill-opacity:1;stroke:none;stroke-width:0.27902129px;stroke-linecap:butt;stroke-linejoin:miter;stroke-opacity:1"
       d="m -9.2433779,-303.98213 -5.7590111,151.56117 c -0.822713,-23.25174 -8.735818,26.90154 46.894779,16.22215 31.738603,-6.09284 43.908091,-61.74402 67.462652,-52.52886 19.745168,7.72483 12.340728,92.697987 46.072058,91.153026 34.52279,-1.581218 31.17803,-89.311456 96.25768,-92.697996 60.87639,-3.16781 23.82584,139.046987 71.57624,139.046988 49.36291,10e-7 35.37676,-129.004698 74.04438,-130.549668 44.39406,-1.77376 73.22166,32.4443 84.73968,32.4443 11.51801,0 11.51802,-153.87863 11.51802,-153.87863 z"
       id="path846"
       inkscape:connector-curvature="0"
       sodipodi:nodetypes="ccssssssscc" />
    <path
       style="fill:#000000;fill-opacity:1;stroke:none;stroke-width:0.27902129px;stroke-linecap:butt;stroke-linejoin:miter;stroke-opacity:1"
       d="m -9.2433779,-303.98213 -5.7590111,160.4834 c -0.822713,-23.25175 -0.963313,27.28731 51.831065,24.3718 36.234581,-2.00101 37.770817,-62.97477 62.526366,-57.16376 19.745168,4.6349 14.898548,105.370466 44.426638,106.602692 37.09699,1.548082 32.80763,-98.088082 97.9031,-101.195312 50.18108,-2.39532 27.97469,136.907723 69.10811,129.777195 42.10129,-7.298315 42.78118,-124.369805 81.44879,-125.914775 44.39407,-1.77376 57.6156,35.58733 79.8034,35.53423 24.73616,-0.0592 11.51802,-171.72299 11.51802,-171.72299 z"
       id="path850"
       inkscape:connector-curvature="0"
       sodipodi:nodetypes="ccssssssscc" />
    <path
       style="fill:#000000;fill-opacity:1;stroke:none;stroke-width:0.27902129px;stroke-linecap:butt;stroke-linejoin:miter;stroke-opacity:1"
       d="m -9.2433779,-303.98213 -5.7590111,178.32794 c -0.822713,-23.25175 -0.140599,29.604765 52.653779,26.689264 36.23458,-2.001014 31.189091,-65.292224 55.94464,-59.481204 19.74518,4.63489 22.31261,112.90662 47.71751,114.327516 32.14595,1.797924 34.47623,-114.681126 99.54852,-118.189946 44.4221,-2.39532 20.8347,138.359379 69.1081,135.18458 55.31069,-3.637621 46.89478,-124.3698 85.56239,-125.91478 44.39406,-1.77375 54.32473,39.44974 76.51253,39.39665 24.73616,-0.0592 11.51802,-189.56754 11.51802,-189.56754 z"
       id="path856"
       inkscape:connector-curvature="0"
       sodipodi:nodetypes="ccssssssscc" />
    <path
       style="fill:#000000;fill-opacity:1;stroke:none;stroke-width:0.27902129px;stroke-linecap:butt;stroke-linejoin:miter;stroke-opacity:1"
       d="m -9.2433779,-303.98213 -5.7590111,196.17235 c -0.822713,-23.25175 0.642292,35.058059 53.476503,32.869124 29.652845,-1.228526 27.898218,-62.974764 52.653778,-57.163754 19.745178,4.6349 19.823858,102.465818 50.185648,103.512748 43.67647,1.506045 35.29894,-117.771048 100.37124,-121.279868 44.42209,-2.39532 24.09879,142.6122414 68.28538,139.819468 49.53345,-3.130717 48.54019,-127.459728 87.20781,-129.004708 44.39406,-1.77375 45.27487,47.947055 74.86711,47.893959 24.7362,-0.04438 11.51802,-212.046839 11.51802,-212.046839 z"
       id="path860"
       inkscape:connector-curvature="0"
       sodipodi:nodetypes="ccssssssscc" />
    <path
       style="fill:#000000;fill-opacity:1;stroke:none;stroke-width:0.27902129px;stroke-linecap:butt;stroke-linejoin:miter;stroke-opacity:1"
       d="m -9.2433779,-303.98213 -5.7590111,214.016634 c -0.822713,-23.251754 -3.43785,42.633088 49.362928,39.821474 23.07112,-1.228526 25.902495,-58.359808 51.008343,-54.073828 18.099748,3.08993 22.288068,87.894831 56.767358,88.835574 48.6187,1.326528 34.47624,-120.860984 99.54854,-124.369804 44.42209,-2.39531 27.53588,154.051228 72.39896,152.179203 53.45335,-2.230477 47.71748,-139.819463 86.3851,-141.364433 44.39405,-1.77376 41.984,55.67188 71.57624,55.618784 24.7362,-0.04438 11.51802,-229.891124 11.51802,-229.891124 z"
       id="path864"
       inkscape:connector-curvature="0"
       sodipodi:nodetypes="ccssssssscc" />
    <path
       style="fill:#000000;fill-opacity:1;stroke:none;stroke-width:0.27902129px;stroke-linecap:butt;stroke-linejoin:miter;stroke-opacity:1"
       d="m -9.2434225,-303.98217 -5.7590105,231.861146 c -0.822713,-23.251754 -10.842287,48.812954 41.95848,46.00134 23.071132,-1.228526 30.838805,-68.402091 55.944642,-64.116102 18.099741,3.089923 28.047071,86.3498571 62.526371,87.2906001 48.6187,1.3265272 32.8308,-116.9985541 97.9031,-120.5073741 44.4221,-2.39532 27.26982,158.76208 70.75355,159.131538 47.03611,0.39964 60.02091,-143.107798 91.32139,-143.681888 35.32294,-0.64786 37.04771,63.396718 66.63995,63.343622 24.73619,-0.04438 11.51801,-258.550402 11.51801,-258.550402 z"
       id="path868"
       inkscape:connector-curvature="0"
       sodipodi:nodetypes="ccssssssscc" />
    <path
       style="fill:#000000;fill-opacity:1;stroke:none;stroke-width:0.27902129px;stroke-linecap:butt;stroke-linejoin:miter;stroke-opacity:1"
       d="m -9.2434225,-303.98217 -5.7590105,249.705624 c -0.822713,-23.251754 -10.842287,43.405572 41.95848,40.593957 23.071132,-1.228526 30.838805,-62.994708 55.944642,-58.708719 18.099741,3.089923 30.633181,83.174409 64.994521,80.3382503 49.44141,-4.0808548 27.10018,-111.9267323 92.1441,-115.8724823 39.48581,-2.39532 16.40538,185.844442 70.75355,177.671144 67.57247,-10.162075 64.95718,-144.652763 96.25765,-145.226849 35.32296,-0.647864 35.4023,48.719532 64.99454,48.666435 24.73619,-0.04438 11.51801,-276.39488 11.51801,-276.39488 z"
       id="path872"
       inkscape:connector-curvature="0"
       sodipodi:nodetypes="ccssssssscc" />
    <path
       style="fill:#000000;fill-opacity:1;stroke:none;stroke-width:0.27902129px;stroke-linecap:butt;stroke-linejoin:miter;stroke-opacity:1"
       d="M -9.2434225,-303.98217 -15.002433,-36.432222 C -15.825146,-59.683976 -25.84472,2.3384499 26.956047,-0.47316463 50.027179,-1.7016901 57.794852,-58.832973 82.900689,-54.546984 101.00043,-51.457061 117.51555,7.4461301 147.0725,7.2516687 185.81836,6.9967516 190.55613,-98.215815 239.21659,-96.261085 c 53.47623,2.148189 21.36119,202.952745 75.68984,194.665774 71.68605,-10.934553 67.42846,-142.22355 92.96681,-142.909395 29.56056,-0.793863 41.16128,35.5873166 64.17181,35.5342204 24.73616,-0.057082 11.51801,-294.2392044 11.51801,-294.2392044 z"
       id="path876"
       inkscape:connector-curvature="0"
       sodipodi:nodetypes="ccssssssscc" />
    <path
       style="fill:#000000;fill-opacity:1;stroke:none;stroke-width:0.27902129px;stroke-linecap:butt;stroke-linejoin:miter;stroke-opacity:1"
       d="m -9.2434225,-303.98217 -5.7590105,285.394314 c -0.822713,-23.251754 -10.842287,45.723022 41.95848,42.911408 23.071132,-1.228526 31.260331,-48.578223 56.767365,-47.893954 28.795028,0.772473 33.792138,44.998482 63.349088,44.80402 38.74586,-0.254917 43.48363,-101.605064 92.14409,-99.650333 53.47623,2.148185 20.53849,198.317845 75.68984,194.665765 72.44588,-4.79729 68.25116,-132.953745 93.78952,-133.63959 29.56055,-0.793863 38.69309,27.0694406 63.3491,26.2644214 40.3434,-1.3172138 11.51801,-312.0835714 11.51801,-312.0835714 z"
       id="path880"
       inkscape:connector-curvature="0"
       sodipodi:nodetypes="ccssssssscc" />
    <path
       style="fill:#000000;fill-opacity:1;stroke:none;stroke-width:0.27902129px;stroke-linecap:butt;stroke-linejoin:miter;stroke-opacity:1"
       d="M -9.2434225,-303.98217 -15.002433,-0.7436074 C -15.825146,-23.995361 -15.972134,58.111629 36.828633,55.300015 59.899764,54.071489 57.393654,-6.4104222 82.900689,-5.7261541 111.69573,-4.9536804 117.51555,47.769643 147.0725,47.575182 c 38.74586,-0.254917 45.99756,-110.249883 90.49866,-108.920132 57.68054,1.723571 27.92562,200.39709 77.33527,200.07315 65.18095,-0.42733 70.71931,-126.001398 96.25765,-126.687243 29.56058,-0.793863 36.22496,15.482192 60.88097,14.677173 40.3434,-1.317214 11.51801,-329.92782 11.51801,-329.92782 z"
       id="path884"
       inkscape:connector-curvature="0"
       sodipodi:nodetypes="ccssssssscc" />
    <path
       style="fill:#000000;fill-opacity:1;stroke:none;stroke-width:0.27902129px;stroke-linecap:butt;stroke-linejoin:miter;stroke-opacity:1"
       d="M -9.2434225,-303.98217 -13.356997,37.957651 C -14.17971,14.705897 -2.8086977,81.363224 39.296782,77.006644 62.265937,74.630064 58.221124,2.7950556 83.723412,3.6207422 107.58216,4.3932158 117.51573,72.589301 147.0725,72.371743 c 34.63229,-0.254917 46.82027,-107.159951 91.32137,-105.830199 57.68054,1.723571 32.03954,184.988926 76.51256,192.348306 56.90137,9.41602 70.71931,-122.911454 96.25765,-123.597299 29.56058,-0.793862 39.51583,16.254676 64.17183,15.449657 40.3434,-1.317214 8.22715,-353.951898 8.22715,-353.951898 z"
       id="path888"
       inkscape:connector-curvature="0"
       sodipodi:nodetypes="ccssssssscc" />
    <path
       style="fill:#000000;fill-opacity:1;stroke:none;stroke-width:0.27902129px;stroke-linecap:butt;stroke-linejoin:miter;stroke-opacity:1"
       d="M -9.2434225,-303.98217 -13.356997,55.802016 C -14.17971,32.550262 -0.34054859,102.29752 41.76493,97.940945 64.734088,95.564357 59.043836,31.454186 84.546126,32.279873 c 23.858744,0.772474 24.742054,72.004207 61.703654,70.295967 46.09531,-2.13036 48.4657,-107.1599508 92.9668,-105.8301989 57.68054,1.7235708 34.0121,166.8351889 78.98069,170.7187689 64.30583,5.55361 67.42847,-113.641649 92.96681,-114.327494 29.56058,-0.793862 41.98397,25.524476 66.63997,24.719456 40.34341,-1.317213 5.75901,-381.066062 5.75901,-381.066062 z"
       id="path892"
       inkscape:connector-curvature="0"
       sodipodi:nodetypes="ccssssssscc" />
    <path
       style="fill:#000000;fill-opacity:1;stroke:none;stroke-width:0.27902129px;stroke-linecap:butt;stroke-linejoin:miter;stroke-opacity:1"
       d="M -9.2434225,-303.98217 -13.356997,73.646306 c -0.822713,-23.251754 16.9227859,61.049154 56.767353,47.546324 22.969168,-7.78398 15.63348,-71.894155 41.13577,-71.068468 23.858744,0.772474 24.742054,84.363938 61.703654,82.655708 46.09531,-2.13036 49.28841,-109.477409 93.78952,-108.147657 57.68053,1.723571 24.90073,151.302437 85.56241,152.951657 78.48219,2.13372 60.02403,-105.91682 85.56237,-106.602665 29.56058,-0.793862 43.6294,41.746625 68.28541,40.941605 40.3434,-1.31721 4.11357,-415.1325 4.11357,-415.1325 z"
       id="path896"
       inkscape:connector-curvature="0"
       sodipodi:nodetypes="ccssssssscc" />
    <path
       style="fill:#000000;fill-opacity:1;stroke:none;stroke-width:0.27902129px;stroke-linecap:butt;stroke-linejoin:miter;stroke-opacity:1"
       d="M -9.2434225,-303.98217 -13.356997,91.490822 C -14.17971,68.239068 0.32896192,149.51593 42.587643,146.76197 67.202237,145.15786 59.043836,62.508091 84.546126,63.333778 108.40487,64.106252 101.84122,167.22796 145.42706,166.07405 c 56.77147,-1.503 50.11113,-115.657275 94.61224,-114.327523 57.68053,1.723571 30.66038,136.730893 88.03056,137.501993 67.8184,0.91154 63.31489,-94.329572 88.85323,-95.015416 29.56057,-0.793863 40.33853,55.651326 64.99453,54.846306 40.34341,-1.31722 1.64544,-452.2891 1.64544,-452.2891 z"
       id="path900"
       inkscape:connector-curvature="0"
       sodipodi:nodetypes="ccssssssscc" />
    <path
       style="fill:#000000;fill-opacity:1;stroke:none;stroke-width:0.27902129px;stroke-linecap:butt;stroke-linejoin:miter;stroke-opacity:1"
       d="m -9.2434225,-303.98217 -4.1135745,413.31743 c -0.822713,-23.251753 8.7496606,58.7976 51.008354,56.04364 24.61458,-1.60411 15.633468,-76.529055 41.135757,-75.703368 23.858746,0.772474 14.677012,120.037608 66.639946,107.375168 67.16264,-16.36632 55.90406,-124.929186 95.43495,-122.824834 52.72652,2.806797 45.47023,130.490484 93.78957,130.549644 62.88954,0.077 55.91045,-84.28729 81.4488,-84.97314 29.56057,-0.79385 41.98395,55.65133 64.17181,54.84632 40.33768,-1.46353 3.29087,-477.85838 3.29087,-477.85838 z"
       id="path904"
       inkscape:connector-curvature="0"
       sodipodi:nodetypes="ccssssssscc" />
    <path
       style="fill:#000000;fill-opacity:1;stroke:none;stroke-width:0.27902129px;stroke-linecap:butt;stroke-linejoin:miter;stroke-opacity:1"
       d="m -9.2434225,-303.98217 -4.1135745,431.16178 c -0.822713,-23.25176 8.7496606,58.7976 51.008354,56.04364 24.61458,-1.60411 15.633468,-68.80423 41.135757,-67.97854 23.858746,0.77247 22.158046,117.35334 66.639946,113.55504 56.39562,-4.81561 56.72677,-133.426503 96.25766,-131.32215 52.72653,2.80679 44.82433,105.81452 92.96686,109.69259 48.90338,3.93938 55.91045,-63.43023 81.4488,-64.11608 29.56057,-0.79385 41.98395,50.24395 64.17181,49.43893 40.33768,-1.46353 3.29087,-495.70273 3.29087,-495.70273 z"
       id="path910"
       inkscape:connector-curvature="0"
       sodipodi:nodetypes="ccssssssscc" />
    <path
       style="fill:#000000;fill-opacity:1;stroke:none;stroke-width:0.27902129px;stroke-linecap:butt;stroke-linejoin:miter;stroke-opacity:1"
       d="M -9.2434225,-303.98217 -13.356997,145.0239 c -0.822713,-23.25176 -4.413788,60.34256 37.844905,57.5886 24.614593,-1.60411 29.61964,-58.76193 55.121919,-57.93624 23.858763,0.77247 26.088453,115.27349 64.994533,115.09999 46.5229,-0.20747 56.72676,-141.15133 96.25765,-139.04698 52.72652,2.80679 48.11519,96.54472 96.25773,100.42279 48.90337,3.93937 54.26501,-54.93291 79.80335,-55.61876 29.56057,-0.79386 43.6294,58.74126 65.81725,57.93624 40.33769,-1.46352 0.82272,-526.67923 0.82272,-526.67923 z"
       id="path914"
       inkscape:connector-curvature="0"
       sodipodi:nodetypes="ccssssssscc" />
    <path
       style="fill:#000000;fill-opacity:1;stroke:none;stroke-width:0.27902129px;stroke-linecap:butt;stroke-linejoin:miter;stroke-opacity:1"
       d="m -9.2434225,-303.98217 -4.1135745,466.85062 c -0.822713,-23.25176 -6.881926,60.34257 28.795033,57.58861 24.590845,-1.89821 38.669512,-58.76194 64.171791,-57.93625 23.858763,0.77247 34.450933,130.59553 64.994533,131.32215 32.65463,0.77684 73.98236,-150.80241 97.08036,-150.63424 47.01606,0.34231 36.42588,86.43276 95.43502,85.74562 48.90523,-0.56949 58.52286,-42.80515 83.91693,-40.1691 29.56057,3.06856 39.51582,58.74125 61.70367,57.93624 40.33769,-1.46353 0.82272,-549.93117 0.82272,-549.93117 z"
       id="path918"
       inkscape:connector-curvature="0"
       sodipodi:nodetypes="ccssssssscc" />
    <path
       style="fill:#000000;fill-opacity:1;stroke:none;stroke-width:0.27902129px;stroke-linecap:butt;stroke-linejoin:miter;stroke-opacity:1"
       d="m -9.2434225,-303.98217 -4.1135745,484.69518 c -0.822713,-23.25176 -6.059213,54.93518 29.617746,52.18122 24.590844,-1.89821 34.555937,-38.67736 60.058216,-37.85167 23.858755,0.77247 39.387235,133.68546 69.930815,134.41208 32.65463,0.77684 72.33694,-156.2098 95.43494,-156.04163 47.01606,0.34231 24.09126,73.10546 96.25773,74.15837 54.6675,0.7976 63.32516,-41.13528 83.09422,-40.94158 40.28636,0.39472 41.16124,65.6936 63.3491,64.88858 40.33768,-1.46353 -0.82271,-574.72807 -0.82271,-574.72807 z"
       id="path922"
       inkscape:connector-curvature="0"
       sodipodi:nodetypes="ccssssssscc" />
    <path
       style="fill:#000000;fill-opacity:1;stroke:none;stroke-width:0.27902129px;stroke-linecap:butt;stroke-linejoin:miter;stroke-opacity:1"
       d="m -9.2434225,-303.98217 -4.1135745,502.53974 c -0.822713,-23.25176 -4.413788,56.48015 19.7451597,53.72619 24.4939633,-2.79215 38.6695123,-27.09012 64.1718023,-26.26443 23.858746,0.77247 36.091045,133.9206 76.512535,134.41208 48.28924,0.58714 67.40065,-165.47959 97.08037,-165.31143 47.01661,0.26642 29.02754,63.83566 94.61229,64.88858 54.66612,0.87762 60.85704,-29.54803 80.62607,-29.35434 40.28636,0.39472 42.80668,59.51374 64.99454,58.70872 40.33768,-1.46353 -0.82271,-592.57263 -0.82271,-592.57263 z"
       id="path926"
       inkscape:connector-curvature="0"
       sodipodi:nodetypes="ccssssssscc" />
    <path
       style="fill:#000000;fill-opacity:1;stroke:none;stroke-width:0.27902129px;stroke-linecap:butt;stroke-linejoin:miter;stroke-opacity:1"
       d="m -9.2434225,-303.98217 -4.1135745,520.38404 c -0.822713,-23.25176 -2.76835,67.29493 21.3905961,64.54096 24.4939529,-2.79215 34.5559279,-33.26999 60.0582169,-32.4443 23.858745,0.77247 39.381904,143.96289 79.803394,144.45437 48.28925,0.58714 69.04607,-171.65946 98.72579,-171.49129 47.01662,0.26641 41.37851,63.30279 92.14416,61.02615 48.86398,-2.19135 60.85704,-34.18293 80.62607,-33.98923 40.28636,0.39471 46.92025,53.33386 69.10811,52.52884 40.33769,-1.46353 -4.93628,-604.23706 -4.93628,-604.23706 z"
       id="path930"
       inkscape:connector-curvature="0"
       sodipodi:nodetypes="ccssssssscc" />
    <path
       style="fill:#000000;fill-opacity:1;stroke:none;stroke-width:0.27902129px;stroke-linecap:butt;stroke-linejoin:miter;stroke-opacity:1"
       d="m -9.2434225,-303.98217 -4.1135745,538.22844 c -0.822713,-23.25176 3.8133731,68.83989 27.972321,66.08593 24.493951,-2.79215 26.328777,-28.63509 51.831066,-27.8094 23.858746,0.77247 41.02733,137.78302 81.44882,138.2745 48.28925,0.58714 69.04607,-171.65946 98.72579,-171.49129 47.01662,0.26641 39.73307,77.20749 90.49874,74.93085 48.86398,-2.19135 63.32516,-55.81245 83.09422,-55.61876 40.28635,0.39472 24.70692,61.83118 68.28538,60.25368 40.33783,-1.4602 -4.93628,-622.08147 -4.93628,-622.08147 z"
       id="path934"
       inkscape:connector-curvature="0"
       sodipodi:nodetypes="ccssssssscc" />
    <path
       style="fill:#000000;fill-opacity:1;stroke:none;stroke-width:0.27902129px;stroke-linecap:butt;stroke-linejoin:miter;stroke-opacity:1"
       d="m -9.2434225,-303.98217 -4.1135745,556.07276 c -0.822713,-23.25175 -4.413788,61.88755 19.7451597,59.13358 24.4939633,-2.79215 34.5559383,-21.68274 60.0582273,-20.85705 23.858746,0.77247 21.27789,156.8479 82.27153,156.04161 63.094,-0.83404 68.22336,-189.42657 97.90308,-189.2584 47.01662,0.26641 38.91036,90.33972 89.67603,88.06308 48.86397,-2.19136 64.97059,-55.81246 84.73965,-55.61876 40.28636,0.39471 23.8842,48.69895 67.46266,47.12145 40.33783,-1.4602 -4.93628,-639.92579 -4.93628,-639.92579 z"
       id="path938"
       inkscape:connector-curvature="0"
       sodipodi:nodetypes="ccssssssscc" />
    <path
       style="fill:#000000;fill-opacity:1;stroke:none;stroke-width:0.27902129px;stroke-linecap:butt;stroke-linejoin:miter;stroke-opacity:1"
       d="M -9.2434225,-303.98217 -13.356997,269.93496 C -14.17971,246.6832 -17.770785,331.8225 6.3881627,329.06853 30.882126,326.27638 40.944101,307.38579 66.44639,308.21148 c 23.858746,0.77247 21.27789,156.8479 82.27153,156.04161 63.094,-0.83403 69.04608,-182.47421 98.7258,-182.30604 47.01661,0.26641 38.08764,83.38736 88.85331,81.11072 48.86397,-2.19135 64.97059,-55.81245 84.73965,-55.61876 40.28636,0.39472 23.8842,48.69895 67.46266,47.12145 40.33783,-1.4602 -4.93628,-657.77015 -4.93628,-657.77015 z"
       id="path942"
       inkscape:connector-curvature="0"
       sodipodi:nodetypes="ccssssssscc" />
    <path
       sodipodi:nodetypes="ccssssssscc"
       inkscape:connector-curvature="0"
       id="path944"
       d="m -9.2434225,-303.98217 -4.1135745,582.83931 c -0.822723,-23.25176 -4.413788,61.88754 19.7451597,59.13358 24.4939533,-2.79216 34.5559383,-21.68275 60.0582163,-20.85706 23.858746,0.77247 21.277901,156.8479 82.271521,156.04162 63.09401,-0.83404 71.51423,-169.342 101.19396,-169.17383 47.01661,0.26641 35.61949,70.25514 86.38516,67.9785 48.86397,-2.19135 64.97059,-55.81245 84.73965,-55.61876 40.28636,0.39472 23.8842,48.69895 67.46266,47.12145 40.33783,-1.46019 -4.93628,-666.69233 -4.93628,-666.69233 z"
       style="fill:#000000;fill-opacity:1;stroke:none;stroke-width:0.27902129px;stroke-linecap:butt;stroke-linejoin:miter;stroke-opacity:1" />
  </g>
</svg>
